# xmcd CD database file generated by Grip 2.5
# 
# Track frame offsets:
#       150
#       13247
#       23680
#       38464
#       53320
#       66080
#       78507
#       95247
#       111660
#       127820
#       139500
#       153202
#       164332
# 
# Disc length: 2507 seconds
# 
# Revision: 3
# Processed by: cddbd v1.4b41PL1 Copyright (c) Steve Scherf et al.
# Submitted via: Grip 2.5
# 
DISCID=9c09c90d
DTITLE=Various Artist - Western Swing
DYEAR=1900
DGENRE=
TTITLE0=San Antonio Rose
TTITLE1=Across the Alley from the Alamo
TTITLE2=Blues for Dixie
TTITLE3=Red Wing
TTITLE4=Westphalia Waltz
TTITLE5=Oklahoma Hills
TTITLE6=South of the Border
TTITLE7=Deep in the Heart of Texas/Beaumont Rag
TTITLE8=Back in the Saddle Again
TTITLE9=Roly Poly
TTITLE10=La Golandrina
TTITLE11=Under the Double Eagle
TTITLE12=Faded Love/Maiden's Prayer
EXTD=
EXTT0=
EXTT1=
EXTT2=
EXTT3=
EXTT4=
EXTT5=
EXTT6=
EXTT7=
EXTT8=
EXTT9=
EXTT10=
EXTT11=
EXTT12=
PLAYORDER=
